<?xml version="1.0" encoding="utf-8"?>
<svg height="512pt" viewBox="-26 0 512 512.001" width="512pt" xmlns="http://www.w3.org/2000/svg">
  <path d="M 457.086 68.828 L 435.207 49.563 L 457.086 30.301 C 460.488 27.301 461.652 22.625 460.055 18.383 C 458.449 14.137 454.484 11.395 449.949 11.395 L 359.41 11.395 L 359.41 7.504 C 359.41 3.359 356.051 0 351.906 0 C 347.762 0 344.402 3.359 344.402 7.504 L 344.402 108.707 L 282.773 142.172 C 282.434 139.461 281.621 136.797 280.336 134.289 L 271.652 117.336 C 265.691 105.695 251.371 101.082 239.738 107.039 L 233.023 110.477 C 227.383 113.367 223.207 118.273 221.262 124.305 C 219.316 130.332 219.836 136.758 222.727 142.395 L 231.41 159.352 C 233.438 163.309 236.434 166.441 239.957 168.637 C 235.348 174.844 233.16 182.477 230.91 190.406 L 229.293 196.133 C 228.164 200.121 230.484 204.27 234.473 205.395 C 235.152 205.59 235.84 205.68 236.516 205.68 C 239.789 205.68 242.797 203.523 243.734 200.215 L 245.352 194.5 C 248.641 182.902 250.66 176.691 257.09 173.199 L 268.617 166.938 L 270.039 166.211 C 270.512 165.969 270.953 165.695 271.402 165.426 L 353.559 120.813 C 353.039 131.082 347.512 140.785 338.41 146.313 L 284.984 178.773 C 284.922 178.809 284.859 178.844 284.801 178.883 L 268.172 188.984 C 264.633 191.137 263.504 195.754 265.656 199.297 C 267.684 202.637 271.902 203.824 275.344 202.148 L 262.727 240.289 L 253.504 244.07 L 228.426 254.348 L 235.652 228.801 C 236.777 224.813 234.461 220.664 230.473 219.535 C 226.48 218.402 222.336 220.727 221.207 224.715 L 209.789 265.094 C 209.641 265.613 209.543 266.184 209.52 266.727 L 206.531 321.617 C 206.441 323.711 206.887 327.668 205.918 329.711 L 172.73 399.531 L 148.613 399.531 C 134.484 399.531 122.992 411.023 122.992 425.148 L 122.992 446.809 C 119.758 445.328 116.168 444.5 112.383 444.5 L 51.137 444.5 C 37.012 444.5 25.52 455.988 25.52 470.117 L 25.52 496.992 L 7.504 496.992 C 3.359 496.992 0 500.352 0 504.496 C 0 508.641 3.359 512 7.504 512 L 449.941 512 C 454.086 512 457.445 508.641 457.445 504.496 C 457.445 500.352 454.086 496.992 449.941 496.992 L 430.426 496.992 L 430.426 303.574 C 430.426 289.449 418.934 277.957 404.809 277.957 L 359.41 277.957 L 359.41 147.047 C 367.73 135.77 370.813 120.988 366.949 106.941 C 366.344 104.734 364.762 102.922 362.652 102.027 C 361.617 101.586 360.508 101.391 359.41 101.434 L 359.41 87.734 L 447.561 88.33 C 452.1 88.33 458.449 84.992 460.051 80.75 C 461.652 76.508 460.488 71.828 457.086 68.828 L 457.086 68.828 Z M 235.547 128.914 C 236.262 126.699 237.793 124.895 239.863 123.836 L 246.578 120.398 C 247.844 119.75 249.195 119.441 250.531 119.441 C 253.695 119.441 256.754 121.172 258.293 124.176 L 266.98 141.133 C 269.008 145.094 267.695 149.895 264.09 152.32 L 261.645 153.645 L 256.484 156.289 C 252.215 158.477 246.957 156.781 244.77 152.508 L 236.082 135.555 C 235.023 133.484 234.832 131.125 235.547 128.914 L 235.547 128.914 Z M 220.469 401.84 C 217.918 400.676 215.145 399.914 212.23 399.645 L 220.469 388.703 L 220.469 401.84 Z M 256.098 341.375 C 259.707 337.051 260.703 332 261.508 327.93 C 261.711 326.961 265.414 306.734 265.414 306.734 C 265.414 306.734 268.918 308.918 269.285 309.074 C 269.539 309.188 269.719 309.438 269.746 309.73 L 273.828 351.227 L 248.68 351.227 L 256.098 341.375 Z M 300.473 299.957 L 294.137 351.191 L 288.906 351.191 L 284.684 308.262 C 284.145 302.762 280.777 297.961 275.844 295.574 L 268.297 290.789 L 273.324 262.926 C 273.324 262.926 294.504 288.086 294.996 288.727 C 299.379 294.426 300.879 296.707 300.473 299.957 Z M 219.418 336.273 C 220.934 331.711 221.637 327.066 221.52 322.344 L 224.246 272.281 L 258.953 258.059 L 252.645 293.004 C 252.625 293.098 252.605 293.195 252.594 293.289 L 247.375 322.184 C 246.695 325.176 246.102 329.715 244.234 332.18 L 193.527 399.531 L 189.348 399.531 L 219.418 336.273 Z M 40.527 470.113 C 40.527 464.266 45.285 459.508 51.137 459.508 L 112.383 459.508 C 118.234 459.508 122.996 464.266 122.996 470.113 L 122.996 496.992 L 40.527 496.992 L 40.527 470.113 Z M 138 470.113 L 138 425.148 C 138 419.297 142.762 414.539 148.613 414.539 L 209.859 414.539 C 215.711 414.539 220.469 419.297 220.469 425.148 L 220.469 496.992 L 138.004 496.992 L 138.004 470.113 L 138 470.113 Z M 415.418 303.574 L 415.418 496.992 L 332.953 496.992 L 332.953 452 C 332.953 447.855 329.594 444.496 325.449 444.496 C 321.301 444.496 317.941 447.855 317.941 452 L 317.941 496.992 L 235.477 496.992 L 235.477 376.84 C 235.477 370.992 240.234 366.234 246.086 366.234 L 307.332 366.234 C 313.184 366.234 317.941 370.992 317.941 376.84 L 317.941 414.457 C 317.941 418.602 321.301 421.961 325.445 421.961 C 329.594 421.961 332.949 418.602 332.949 414.457 L 332.949 303.574 C 332.949 297.723 337.711 292.965 343.563 292.965 L 351.828 292.965 C 351.852 292.965 351.879 292.969 351.906 292.969 C 351.93 292.969 351.957 292.965 351.98 292.965 L 404.805 292.965 C 410.656 292.965 415.418 297.727 415.418 303.574 L 415.418 303.574 Z M 343.563 277.957 C 329.438 277.957 317.945 289.449 317.945 303.574 L 317.945 353.535 C 315.258 352.309 312.328 351.531 309.246 351.305 L 315.367 301.805 C 316.57 292.156 311.648 285.762 306.891 279.574 C 306.387 278.918 277.219 244.285 277.219 244.285 L 295.113 190.184 L 344.402 160.238 L 344.402 277.957 L 343.563 277.957 Z M 359.41 72.723 L 359.41 26.406 L 438.797 26.406 L 421.699 41.461 C 419.371 43.512 418.035 46.465 418.035 49.566 C 418.035 52.668 419.371 55.621 421.699 57.672 L 438.797 72.727 L 359.41 72.727 L 359.41 72.723 Z M 359.41 72.723" style="fill: rgb(255, 255, 255);"/>
</svg>